<?xml version="1.0" encoding="utf-8"?>
<!-- Generator: Adobe Illustrator 22.0.1, SVG Export Plug-In . SVG Version: 6.00 Build 0)  -->
<svg version="1.1" id="Capa_1" xmlns="http://www.w3.org/2000/svg" xmlns:xlink="http://www.w3.org/1999/xlink" x="0px" y="0px"
	 viewBox="0 0 841.9 595.3" enable-background="new 0 0 841.9 595.3" xml:space="preserve">
<rect fill="#C6DBCF" width="841.9" height="595.3"/>
<linearGradient id="SVGID_1_" gradientUnits="userSpaceOnUse" x1="370.0165" y1="274.6755" x2="484.1805" y2="274.6755">
	<stop  offset="0.4225" style="stop-color:#FFFFFF"/>
	<stop  offset="0.9285" style="stop-color:#FFFFFF;stop-opacity:0"/>
</linearGradient>
<path opacity="0.56" fill="url(#SVGID_1_)" d="M371.1,244.6c0,0,42.1-28.8,98.1-67c34,24.6,34.6,170.9,0,194.3
	c-57.8-23.9-99.2-41.4-99.2-41.4L371.1,244.6z"/>
<g>
	<path fill="#3D405B" d="M503,350.5c0.7-0.6,1.6-0.7,2.5-0.7c3.5-0.1,6.9,0.4,10.3,1.6c5.6,2.1,11.1,4.1,16,7.6
		c1.6,1.2,3.3,2.3,4.5,3.9c0,4.7-0.5,9.3-1.4,13.9c-1.2,6.1-3.6,11.7-7.1,16.8c-2.5,3.6-4.8,7.3-7.9,10.4c-2.3,2.4-4.8,4.6-7.6,6.3
		c-0.7,0.4-1.4,0.8-2.2,1c-5.6,1.5-11.3,2.5-17.1,3c-5.4,0.5-10.9,0.5-16.3,0.5c-5.2,0-10.3,0.4-15.5,1c-4.3,0.5-8.6,0.5-13,0.3
		c-1.1-2.4-1.9-5-3.2-7.3c-0.9-0.8-1-1.8-1.2-2.9c-0.1-0.8-0.2-1.5-0.2-2.3c0-1.9,0.1-3.7,0.5-5.6c0.1-0.3,0.2-0.7,0.5-0.8
		c0.5-0.1,0.7,0.3,0.9,0.6c0.7,0.9,1.5,1.8,2.1,2.9c0.4,0.6,0.9,1.1,1.5,1.5c0.9,0.5,1.1,0.5,1.4-0.4c0.2-0.5,0.4-0.9,0.5-1.4
		c1.1-3.7,3.4-6.6,6.7-8.5c3-1.3,6.1-1.6,9.2-1.4c1.7,0.1,3.4,0.2,5.2,0c2.3-0.1,4.5-0.8,6.7-1.4c1-0.3,1.8-0.8,2.6-1.5
		c1-0.9,2.1-1.8,3.4-2.3c1-0.4,2-0.6,3-0.6c2.7,0,4.4-1.1,5.5-3.7c0.6-1.4,0.8-3,1.2-4.4c0.8-3.5,2.4-6.6,5-9.1
		c0.1-0.1,0.3-0.3,0.4-0.4c2-1.5,2.5-3.6,2.2-5.9c-0.2-2.1,0.5-4.1,0.5-6.2c0-1,0-2-0.1-3C502.5,351.3,502.4,350.8,503,350.5z"/>
	<path fill="#F2CC8F" d="M370,330.4c0,1.4,0,2.8,0,4.1c0,0.9-0.6,1-1.2,1c-0.9,0-1.8,0-2.8-0.1c-5.2-0.1-10.3,0.4-15.5,0.2
		c-0.7,0-1.4,0.1-2-0.4c-0.3-0.4-0.3-0.9-0.3-1.3c0-1.9-0.1-3.8,0-5.8c0.3-3,0.2-6,0.2-9c0-4.7-0.1-9.4,0-14.2c0.3-10,0-20,0.3-30
		c0.2-8.7,0-17.3,0.2-26c0.1-3.1,0.2-6.3,0.2-9.4c0-1.3,0.1-1.4,2.2-1.9c4.4-0.5,8.8-0.3,13.2-0.4c0.2,0,0.5,0,0.6,0.2
		c1.6,0,3.2,0,4.8,0c1.4,0,1.7,0.2,1.7,1.7c0,1.4,0,2.8,0,4.2c-0.1,1-0.2,2,0.1,3.1c0.1,0.4,0.1,0.9,0.1,1.4
		c0.1,6.8-0.2,13.6-0.3,20.4c-0.1,4.4,0.1,8.9-0.2,13.3c-0.3,5.4,0,10.9-0.2,16.3c-0.2,4.5,0,9-0.2,13.5c-0.2,4.3-0.1,8.6-0.2,12.9
		C370.6,326.4,370.3,328.4,370,330.4z"/>
	<path fill="#E7C388" d="M351.4,238.1C351.3,238.1,351.3,238.2,351.4,238.1c-0.6,0.4-1.4-0.1-1.7,0.4c-0.4,0.6-0.1,1.3-0.1,2
		c-0.3,10.6,0,21.3-0.3,31.9c-0.2,8.9,0.1,17.8-0.2,26.7c-0.3,9,0,18-0.2,27c-0.1,3-0.1,6-0.2,9.1c-0.3,0.4-0.8,0.4-1.3,0.4
		c-0.5,0-1,0-1.5,0c-5.2-0.2-10.4,0.3-15.6,0.2c-0.5,0-1.1,0-1.6-0.1c-0.5-0.1-1.1-0.3-1-1c-0.1-0.8,0.5-1.5,0-2.3
		c-0.4-0.7-0.4-1.4-0.4-2.1c0-5.7-0.1-11.4,0-17c0.5-20.9,0.1-41.8,0.2-62.7c0-1.2,0.2-2.4,0-3.6c0.5-0.3,0.7-0.7,0.7-1.3
		c0-1.8,0-3.7,0-5.5c0.1-1.8,0.3-1.9,2-1.8c1.1,0.1,2.1,0,3.2,0c0.3-0.3,0.8-0.4,1.2-0.4c2.6,0,5.2-0.4,7.8-0.2
		c2.5,0.1,5-0.3,7.5-0.2C350.4,237.8,351,237.6,351.4,238.1z"/>
	<path fill="#DEBB83" d="M327.4,247.1c0.5,0.1,0.7,0.3,0.6,0.8c-0.3,1-0.1,2-0.1,3c0,19.6,0.1,39.3-0.1,58.9c-0.1,7,0,13.9-0.2,20.9
		c0,0.6,0.6,1.2,0,1.8c-0.6,0.1-0.9-0.3-1.3-0.6c-8.5-6.8-17-13.6-25.6-20.3c-0.6-0.5-0.8-0.9-0.8-1.7c0.4-12.1,0.2-24.2,0.2-36.4
		c0-1.2,0.4-2,1.3-2.7c3.8-3.4,7.5-6.9,11.3-10.4c4.7-4.4,9.5-8.7,14.2-13.1C327.1,247.3,327.3,247.2,327.4,247.1z"/>
	<path fill="#2D2F42" d="M448.3,416.1c0.3-0.4,0.8-0.3,1.2-0.3c2.1,0,4.2,0,6.3,0c3.3-0.1,6.5-0.4,9.8-0.9c1-0.1,2.1-0.2,3.1-0.3
		c3.7-0.1,7.5-0.4,11.2-0.3c3.4,0.1,6.8-0.1,10.2-0.3c4.3-0.2,8.6-0.9,12.9-1.7c1.8-0.3,3.6-0.8,5.4-1.1c3.1-0.5,5.4-2.4,7.6-4.3
		c6.6-5.6,11.2-12.8,15.2-20.3c2.2-4.2,3.1-8.8,3.9-13.5c0.5-2.9,0.5-5.8,0.9-8.6c0.1-0.5,0-0.9-0.2-1.4c-0.1-0.4,0.1-0.6,0.5-0.5
		c0.9,0.9,1.5,2.1,2,3.2c2.3,4.9,3.2,10.1,3.4,15.4c0.3,8.2,0.5,16.4-0.6,24.6c-0.4,2.9-1.2,5.8-2.4,8.5c-1.9,4.4-5.5,6.6-10.1,7.5
		c-4.9,1-9.9,1.4-14.8,0.6c-1.6-0.3-3.2,0.1-4.8,0.2c-1.4,0.1-2.8,0.2-4.1,0.2c-5.7-0.2-11.3,0.5-17-0.1c-6.4-0.6-12.8,0.2-19.2,0.2
		c-4.1,0-8.2,0.6-12.3,0.5c-1.1,0-2.1-0.2-2.9-0.9C451.3,420.9,449.3,418.8,448.3,416.1z"/>
	<path fill="#C56B53" d="M327.6,334.8c0.3,0.6,0.7,0.7,1.3,0.7c6.5-0.1,13.1-0.2,19.6-0.2c6.2,0.2,12.4-0.3,18.6-0.2
		c0.5,0,1.1-0.1,1.6,0.1c0.6,0.2,0.9-0.1,1.2-0.6c2.1,0,4.2,0,6.3,0c1.3,0,1.4,0.1,1,1.4c-0.5,0.8-1.3,0.6-2,0.6
		c-4.8,0-9.6,0.1-14.3,0c-3.1,0-6.3,0.3-9.4,0.3c-0.9,0-1.2,0.3-1.2,1.2c0,0.9,0.2,1.8-0.3,2.6c-0.5,0.4-1.2,0.4-1.8,0.4
		c-2.4,0-4.8,0-7.1,0c-1.2,0-1.3,0.1-1.3,1.3c0,7.8,0,15.6,0,23.5c0,1.2,0.1,1.3,1.4,1.3c3,0,6.1,0,9.1,0c0.6,0,1.2-0.1,1.8,0.4
		c-0.1,0.9-0.9,0.7-1.4,0.7c-2.7,0.1-5.4,0-8.2,0c-2.9,0-2.6-0.2-2.6,2.6c0,3,0,6.1,0,9.1c0,1.5,0.1,1.5,1.6,1.5c2.7,0,5.4,0,8.1,0
		c0.6,0,1.2-0.1,1.8,0.4c0.3,0.3,0.3,0.7,0.3,1.1c0,2,0,3.9,0,5.9c0,0.4-0.1,0.8-0.4,1.2c-3.6,0.1-7.1,0.1-10.7,0.1
		c-0.9,0-1.1,0.3-1.1,1.2c0,8.1,0,16.3-0.1,24.4c0,0.9,0.2,1.3,1.2,1.2c2.5,0,2.5,0,2.4,2.4c0,0.7-0.1,1.4,0,2.1
		c0.1,1.1-0.5,1.4-1.4,1.5c-0.8,0.1-1.7,0.1-2.5,0.1c-4.1,0-8.2,0-12.3,0c-1.6,0-1.7-0.2-1.6-1.7c0-1.2,0.1-2.4,0.1-3.6
		c0-0.5,0.2-0.7,0.7-0.7c0.9,0,1.8-0.2,2.6-0.1c0.8,0,1-0.3,1-1.1c-0.1-4.4-0.2-8.7-0.3-13.1c-0.3-10.5-0.4-20.9-0.5-31.4
		c-0.1-9.9-0.2-19.7-0.3-29.6c0-0.9-0.3-1.1-1.1-1.1c-2,0.1-4,0.1-6,0.1c-0.9,0-1.4-0.2-1.2-1.4c0.2-1,0-2.1-0.1-3.1
		c-0.1-1,0.3-1.4,1.3-1.4C323.4,334.8,325.5,334.8,327.6,334.8z"/>
	<path fill="#81B29A" d="M503,350.5c-0.1,0.3-0.2,0.5-0.2,0.8c0.6,3.4-0.2,6.7-0.2,10c-0.9,1.5-2.2,2.6-3.4,3.7
		c-1.3,1.1-2.2,2.4-2.9,3.9c-2,4.3-4.5,8.2-7.3,11.9c-0.5,0.7-1.2,1-2.1,1.1c-2.4,0.1-4.6,0.8-6.6,2.1c-2.5,1.7-5.2,3.2-7.2,5.7
		c-0.2,0.2-0.4,0.4-0.8,0.5c-0.3-0.1-0.5-0.3-0.6-0.5c-1.3-2-2.7-3.9-4.2-5.7c-0.8-1.1-1.6-2.2-2.5-3.2c-0.3-0.3-0.8-0.6-0.4-1.1
		c0.5-0.2,0.9,0.2,1.2,0.5c1.3,0.8,2.6,1.6,4.1,2c2.9,0.9,5.5,0,7.8-1.6c3.5-2.5,6.1-5.9,8-9.8c1.3-2.6,2.8-5.1,4.2-7.7
		c2-3.8,3.5-7.8,4.1-12.1c0-0.2,0.1-0.4,0.1-0.5c-2.3,4.4-5.5,7.9-9.8,10.5c-3,1.8-6.1,3.3-9.6,4c-1.2,0.2-2.3,0.4-3.5,0.5
		c-3.1,0.3-5.4-1.4-7.6-3.3c-1.4-1.2-2.7-2.5-4-3.8c-0.5-0.4-0.9-0.8-1.2-1.4c-1.9-2.9-4.7-4.9-7.4-7c-1.2-0.9-2.7-1.3-4.1-1.9
		c-0.3-0.5,0.1-0.8,0.3-1c0.4-0.4,0.7-0.9,1-1.3c1-1.3,2-2.4,3.9-2.2c0.5,0.1,1,0.2,1.4,0.5c2,1.7,4.1,3.3,6.4,4.7
		c0.2,0.1,0.4,0.3,0.6,0.6c0.9,1.5,2,2.8,3.6,3.6c0.6,0.3,1.2,0.7,1.7,1.2c0.5,0.5,1,0.9,1.7,1.1c0.4,0.1,0.7,0.3,1,0.5
		c2.7,2.1,5.9,1.7,7.5-1.3c2-3.7,4.2-7.3,5.1-11.6c0.8-4.1,2.8-7.7,5.3-11c0.9-1.3,1.8-2.6,2.8-3.8c0.3-0.1,0.4,0,0.5,0.3
		c3.1,3.3,6.5,6.5,8.8,10.5c1.9,3.4,3.3,6.9,4.3,10.6C502.7,349.7,502.7,350.2,503,350.5z"/>
	<path fill="#C76C54" d="M495.3,251.4c3,0.6,5.2,2.5,7.1,4.8c3.1,3.6,6.5,6.8,10.9,8.8c1.1,0.5,2.3,1.1,3.4,1.6
		c0.6,0.3,0.9,0.6,0.8,1.3c-0.4,4.3-0.7,8.7-2,12.9c-2,6.3-2.4,12.8-1.5,19.4c0,0.2,0.1,0.3,0.1,0.5c0,0.3,0.2,0.7-0.1,0.9
		c-0.3,0.2-0.6-0.1-0.9-0.3c-1.2-0.7-2.5-1.3-3.7-2c-0.1,0-0.1,0-0.3,0c0.3,4.9,1.1,9.6,2.5,14.6c-2.5-1.9-4.5-3.9-7-5.6
		c-0.9,4.3-0.7,8.5,0.4,12.6c-0.4,0.3-0.4,0.4-0.8,0.1c-0.6-0.5-1.2-1.2-1.8-1.8c-4.6-5.2-8.5-10.9-11.7-17.1
		c-0.3-0.5-0.7-0.8-1-1.2c0.1-0.5,0.6-0.5,1-0.7c8.8-3.5,11.2-14.2,4.7-21.1c-0.4-0.4-0.8-0.7-0.7-1.4c0.2-6.8,0.2-13.6,0.3-20.4
		c0-1.5,0.2-3,0.2-4.5C494.8,252.4,494.8,251.8,495.3,251.4z"/>
	<path fill="#E07A5F" d="M350,340.5c0-1,0-2.1,0-3.1c0-0.8,0.3-1,1.1-1.1c7.7-0.3,15.4-0.2,23-0.2c1.1,0,2.2,0.2,3.3-0.2
		c0.1,1.2-0.2,2.4-0.2,3.7c0,0.7-0.3,0.9-1,0.9c-1.4,0-2.8,0-4.1,0c-0.6,0-0.9,0.1-0.9,0.8c-0.1,9.1-0.2,18.3-0.3,27.4
		c0,0.3,0,0.7,0,1c0.3,0.3,0.4,0.7,0.3,1c-0.8,1.7-0.3,3.4-0.4,5.1c0,0.1,0,0.1,0,0.2c-0.1,12.8-0.2,25.6-0.4,38.4
		c0,0.4,0,0.8-0.1,1.1c0,0.4,0.2,0.6,0.6,0.7c0.7,0.1,1.4-0.3,1.9,0.4c0.6,0.7,0.4,1.6,0.4,2.4c0,0.2,0,0.4,0,0.6
		c-0.4,0.4-0.9,0.4-1.4,0.4c-4.3-0.1-8.6,0.3-12.9,0.2c-1.3,0-2.3,0-2.8,1.5c-0.4-1.3-0.2-2.7-0.2-4c0-0.7,0.5-1,1.2-1.2
		c1.1-0.3,2.2-0.5,3.3-0.5c0.8,0,1.1-0.2,1.1-1.1c-0.3-8.1-0.5-16.2-0.4-24.4c0-0.7-0.3-0.9-0.9-0.9c-3,0-6,0-9,0c0-2.7,0-5.4,0-8.1
		c0.8-0.6,1.7-0.6,2.6-0.6c1.8-0.1,3.7,0,5.5,0c1.3,0,1.3-0.1,1.4-1.4c0.1-3.6-0.1-7.1-0.2-10.7c0-0.5,0-1.1,0.1-1.6
		c-0.1-2.4,0-4.8-0.1-7.2c0-6.1-0.4-12.2-0.2-18.3c0-0.8-0.3-1-1-1c-2.5,0-5,0-7.5,0C351.1,341,350.4,341.1,350,340.5z"/>
	<path fill="#E07A5F" d="M467.7,383.8c1.8,1.9,3.2,4,4.6,6.2c0.3,0.2,0.4,0.4,0.2,0.7c-1.4,0.3-2.8,0.3-4.2,0.2
		c-2.5-0.3-4.9,0-7.3,0.3c-1.1,0.2-2.1,0.6-3.2,1c-0.7,0.3-1.3,0.3-2,0.2c-3.1-0.6-6.3,0-9.4,0c-1.7,0-4.9,2.2-5.3,4.7
		c-0.4,2-0.6,3.9-0.7,5.9c0,1.3,0,2.7,0,4c0,0.8-0.3,1.3-1.2,1.3c-4.2-0.6-8.5-0.6-12.6-2.4c-1.6-0.7-2.3-1.8-2.3-3.4
		c0-1.5-0.1-3.1-0.4-4.6c0.1-2.2,0-4.5,0.5-6.7c0.1-0.6,0-1.1-0.2-1.6c0.5,0,0.9-0.1,1-0.8c0.9-4.3,2.4-8.4,4.6-12.1
		c0.2-0.4,0.4-0.8,0.5-1.2c1.4-2.1,3.2-3.9,5.5-5.1c4.1-2.3,8.4-2.2,12.6-0.3c4.5,2,8.8,4.4,12.7,7.3
		C463.6,379.2,465.6,381.5,467.7,383.8z"/>
	<path fill="#E07A5F" d="M454.7,276.5c0.2-1.4-0.2-2.7-0.3-4c-0.3-2.4,0-4.7,1.3-6.7c4.5-6.9,10.6-11.9,18.5-14.6
		c0.5-0.2,1.1-0.4,1.7-0.3c0.7,1,0.5,2.2,0.6,3.3c0.4,7,1.8,13.8,3.5,20.5c0.1,0.5,0.3,1,0.3,1.5c-0.2,0.7-0.8,0.9-1.2,1.3
		c-3,2.1-4.9,4.9-5.6,8.5c-0.9,4.9,1.5,10.4,5.8,12.9c0.5,0.3,1,0.5,1.3,0.9c0.6,1.6,1.3,3.2,1.9,4.9c0.2,0.8-0.2,1-0.9,0.9
		c-0.3-0.1-0.6-0.2-0.9-0.3c-0.9-0.6-1.9-0.8-2.8-1.3c-4.4-2.4-7.4-6-9.7-10.4c-0.5-0.9-1.1-1.6-1.9-2.2c-2.3-1.6-4.2-3.6-5.5-6
		c-0.1-0.4-0.3-0.7-0.5-1c-2.1-2.9-3.7-6-5-9.3C455.2,275.6,455.6,276.2,454.7,276.5z"/>
	<path fill="#6F9985" d="M446.7,347.9c1.9,0.2,3.5,1,5,2.2c1.8,1.4,3.5,3,5.2,4.5c0.9,0.7,1.2,1.9,2,2.7c2.7,2.4,5,5.1,8.2,7
		c1.5,0.9,3.1,0.9,4.7,0.7c5-0.5,9.4-2.4,13.6-5.2c3.6-2.4,6.3-5.6,8.4-9.4c0.2-0.3,0.4-0.7,0.6-1c0,1.6-0.1,3.1-0.6,4.6
		c-1.3,4.7-3.2,9.1-5.9,13.2c-1.3,1.9-1.9,4.3-3.2,6.2c-1.8,2.6-3.7,5.2-6.3,7.1c-3,2.2-6.5,3.3-10.2,1.3c-1.2-0.7-2.4-1.4-3.7-2.1
		c-0.5,0.1-0.7-0.3-1-0.6c-2.3-2.9-4.9-5.7-7-8.8c-1.6-2.3-3.9-3.6-6.3-4.9c-0.4-0.2-0.9-0.2-1.1-0.8c-1.2-2.2-3.1-3.9-4.7-5.8
		c-1.1-1.2-2.3-2.4-3.4-3.5c-0.5-1.1-0.5-2.1,0.3-3c1.1-1.1,2.4-2.1,3.6-3.2C445.5,348.8,445.8,347.9,446.7,347.9z"/>
	<path fill="#3D405B" d="M424.1,397.9c0.5,1.4,0.5,2.8,0.5,4.2c0,1.8,0.5,2.9,2.4,3.7c2.8,1.1,5.6,1.4,8.5,1.8
		c1.2,0.1,2.4,0.5,3.6,0.5c1.1,0.2,2.1-0.2,3.2,0.1c0.6,0.2,1.2,0.2,1.3,1c-0.2,2.5,0.2,5,0.2,7.5c0,0.6,0.1,1.1-0.2,1.7
		c-1.4,0.8-2.9,0.6-4.4,0.8c-6.1,0.7-12.1,0.6-18.1-0.7c-5.1-1.2-9.4-3.8-11.3-9.1c-0.6-1.6-1.3-3.2-1.9-4.8
		c-0.1-1.1,0.1-2.3,0.3-3.4c0.1-0.4,0.1-0.8-0.1-1.2c0.4-1.6,1-3.1,1.9-4.5c1.9-3,5.2-3.7,8.3-2.4
		C420.6,394.1,422.4,395.9,424.1,397.9z"/>
	<path fill="#FFEDD8" d="M480.6,305.1c0.4,0.1,0.7,0.2,1.1,0.4c0.8,0.3,0.6-0.2,0.5-0.6c-0.1-0.3,0.1-0.3,0.3-0.2
		c0.4,0.1,0.6,0.4,0.9,0.7c1.9,1.9,3.7,3.7,5.6,5.6c0.4,0.4,0.8,0.8,0.8,1.5c-0.2,1.2-0.6,2.3-1,3.4c-0.3,0.8-0.8,1.5-1.6,1.9
		c-2.9,1.3-5.7,2.5-8.9,3c-2.8,0.4-5.7,0.7-8.5,0c-1.4-0.3-2.7-0.7-4-1.3c-0.5-0.9-1.3-1.3-1.9-2.1c-2.1-3.2-3-6.8-3.9-10.4
		c-0.7-3.3-1.4-6.6-1.2-9.9c0-0.3,0-0.5-0.2-0.7c-0.2-1,0.7-1.7,0.9-2.6c0.2-0.5,0-1,0.4-1.5c0.6-0.3,0.9,0.2,1.2,0.5
		c1.2,1.3,2.6,2.4,3.9,3.6c0.1,0.1,0.2,0.2,0.3,0.2c3.5,2.1,6.3,5,10,6.8C476.9,303.9,478.7,304.5,480.6,305.1z"/>
	<path fill="#6F9985" d="M489,327.9c-0.5,1.4-1.6,2.5-2.5,3.7c-2.5,3.4-4.6,7-5.4,11.2c-0.8,4.3-3.1,7.8-5,11.5
		c-1.5,2.8-3.6,3.3-6.7,2.5c-0.1,0-0.3,0-0.3-0.1c-1.1-1.3-3.1-1.4-4.1-2.7c-0.4-0.6-1.1-0.8-1.7-1.1c-1.5-0.9-2.7-2-3.3-3.6
		c0.5-0.3,0.9,0,1.3,0.2c0.8,0.4,1.2,0.2,1.4-0.7c1.3-4.8,3.9-9.1,6.7-13.2c1-1.5,2.2-2.8,3.3-4.1c0.5-0.6,1.3-0.9,1.8-1.5
		c0.3-0.2,0.6-0.3,0.9-0.5c1.7-2,4.1-2.3,6.4-2.6c1.7-0.2,3.5-0.1,5.3,0C487.9,326.9,488.8,326.8,489,327.9z"/>
	<path fill="#3D405B" d="M495.3,251.4c-0.2,6.2-0.2,12.4-0.3,18.6c0,2.4-0.1,4.7-0.2,7.1c0,0.4-0.1,0.7-0.2,1
		c-0.5,0.1-0.8-0.2-1.1-0.4c-3.3-2-6.7-2.8-10.5-1.8c-0.5,0.1-1.1,0.3-1.5-0.2c-0.4-0.7-0.4-1.4-0.4-2.1c0.1-5-0.3-9.9-0.3-14.9
		c0-2.2-0.2-4.4-0.2-6.6c0-0.6,0-1.1,0.3-1.7c0-0.2,0-0.3,0-0.5c0-2.6,0.7-3.3,3.3-3.3c0.3,0.4,0.6,0.6,1,0c2.3-0.1,4.6-0.1,6.8-0.2
		c0.3,0.1,0.7-0.1,0.9,0.4c0.2,0.9,0.5,0.1,0.8,0c1.3,0.2,1.5,1.3,1.6,2.3C495.3,249.9,495.3,250.6,495.3,251.4z"/>
	<path fill="#F4F1DE" d="M370,330.4c0.1-5.5,0.1-11,0.3-16.4c0.1-1.6,0.1-3.3,0.1-4.9c0-8.1,0.2-16.2,0.3-24.4
		c0.1-4.7-0.1-9.4,0.2-14c0.2-4.4,0-8.7,0.2-13.1c0.2-4.3,0.1-8.7,0.2-13c0-0.3-0.1-0.7,0.2-1c-0.2,2.7,1.2,5,2.2,7.4
		c1.3,3.4,2.1,7,2.7,10.7c0.8,5.4,1.3,10.7,1.5,16.2c0.1,2.8,0.2,5.6,0.1,8.4c-0.2,4.6-0.4,9.2-0.8,13.8c-0.7,6.6-1.8,13.1-3.5,19.6
		c-0.7,2.9-1.7,5.6-2.9,8.4C370.5,328.8,370.3,329.6,370,330.4z"/>
	<path fill="#9F9E9E" d="M370.8,376.2c-0.1-2.1,0-4.3,0.2-6.4c1.6,0.3,2.6,1.3,3.3,2.6c2.2,4,3.4,8.2,3.3,12.7
		c-0.1,2.4-0.1,4.8-0.1,7.1c-0.1,6.3,0.3,12.7,2.6,18.7c1.3,3.3,3.2,6.1,6.2,7.9c3.5,2.2,5.5,1.9,7.8-1.6c1.4-2.1,1.8-4.6,2.3-7.1
		c1-5,1.3-10.1,2.1-15.1c1-6.1,1.1-12.4,1.6-18.5c0.9-10.8,3.5-21,8.1-30.8c2.9-6.1,5.9-12.1,9.6-17.8c1.4-2.1,3.1-3.8,5.3-5.1
		c2-1.1,4-1.5,6,0c0.5,0.2,0.7,0.5,0.7,1c-0.1,0.9-0.7,0.9-1.4,0.7c-1-0.4-1.9-0.9-3-0.8c-2.5,0.7-4.3,2.4-5.7,4.4
		c-2,2.7-3.6,5.5-5.1,8.5c-4.4,8.3-8.3,16.8-10.7,25.9c-1.1,4.2-1.5,8.6-1.9,12.9c-1,9.6-1.4,19.2-3,28.7c-0.6,3.7-1,7.4-2.1,11
		c-0.7,2.3-2,4.3-4,5.8c-1.2,0.9-2.5,1.1-3.9,0.8c-3.3-0.7-5.7-2.8-7.7-5.3c-3-3.8-4.2-8.3-4.9-13c-1-5.8-0.7-11.7-0.6-17.6
		c0.1-4.4-0.9-8.4-3-12.3c-0.1-0.1-0.1-0.2-0.2-0.3c-0.4-0.6-0.8-1.7-1.5-1.5c-0.6,0.2-0.2,1.2-0.3,1.9
		C370.8,374.5,371,375.3,370.8,376.2z"/>
	<path fill="#FFEDD8" d="M446.7,347.9c-0.5,0.5-1.1,0.9-1.6,1.4c-0.5,0.2-0.8-0.2-1.1-0.5c-1.1-0.9-2.3-1.7-3.7-2.1
		c-1.8-0.7-3.5-1.6-5-2.7c-2.7-1.9-5.6-3.4-7.8-5.9c-1.5-1.7-2.9-3.4-4-5.3c-0.2-0.4-0.6-0.8-0.4-1.4c0.3,0,0.6,0,1.1,0
		c-0.6-1-1.3-1.9-1.1-3.1c0.2-0.9,0.4-1.6,1.2-2c0.4-0.2,0.7-0.4,0.8,0.3c0.1,0.6-0.6,0.7-0.8,1.1c-0.6,1.6-0.4,2.6,0.8,3.6
		c1.3,1.1,2.6,2,4,2.8c0.7,0.4,1.5,0.7,2.3,0.6c1.5-0.2,2.8-1.2,4.2-1.8c0.4-0.2,0.2-0.4,0.1-0.7c-0.2-0.5-0.5-0.9-0.8-1.4
		c-0.4-1.3-0.9-2.5-1.3-3.8c-0.3-0.9-0.2-1.7,0.3-2.5c0.6-0.8,1.3-0.9,2-0.2c0.3,0.3,0.6,0.6,0.8,0.9c3.4,3.2,5.7,7,6.9,11.5
		c0.4,1.5,0.7,3,1.4,4.5c0.4,0.9,0.9,1.8,1.7,2.4c0.4,0.8,1.1,1.4,1.3,2.3C447.9,346.7,447.2,347.2,446.7,347.9z"/>
	<path fill="#77A48E" d="M350,238.1c-5.5,0.3-11.1,0.3-16.6,0.4c0.6-4.9,3.4-8.2,7.4-10.6c2.1-1.3,4.5-2,6.9-2.4
		c0.4-0.7,0.8-1,1.6-0.4c0.6,0.6,1.4,0.1,2.1,0.4c1.4,0.8,1.7,1.6,1.3,3.2c-0.3,1.2-0.8,2.2-1.2,3.4c-0.5,1.6-0.9,3.2-1,4.8
		C350.5,237.3,350.5,237.8,350,238.1z"/>
	<path fill="#2D2F42" d="M407.8,404.5c1.2,1.3,1.7,2.9,2.2,4.5c1.1,3.1,3.2,5.1,5.9,6.9c2.8,1.8,5.8,2.4,9,2.7
		c1.7,0.1,3.4,0.5,5.1,0.6c1.5,0.1,3-0.3,4.5-0.2c2.7,0.1,5.3-0.3,8-0.6c0.4,0,0.8,0,1.1,0c0,1.2-0.1,2.3-0.3,3.4
		c-0.1,0.7-0.5,1.2-1.2,1.1c-3.2-0.3-6.3,0.2-9.5,0.4c-3.2,0.2-6.3-0.3-9.4-0.5c-2.3-0.1-4.7-0.3-6.9-1.1c-3.6-1.2-5.6-3.9-7-7.2
		C407.8,411.4,407.6,408,407.8,404.5z"/>
	<path fill="#E07A5F" d="M489.5,300.9c0.5,0,0.8,0.2,1.1,0.7c2.1,4,4.4,7.9,7.1,11.5c2,2.6,4,5.2,6.4,7.5c0.2,0.2,0.3,0.6,0.7,0.3
		c0.9,2.1,1.5,4.3,3.1,6.4c-5.7-1.4-9.3-5-12.4-9.3c-0.3,0.2-0.1,0.5-0.2,0.7c-0.7-0.2-1-1-1.5-1.5c-1.6-1.8-2.8-3.8-4-5.9
		c-1.4-2.9-2.8-5.8-4.1-8.8c-0.2-0.4-0.6-0.9-0.1-1.3C486.8,300.9,488.1,300.4,489.5,300.9z"/>
	<path fill="#CD7057" d="M449,364.6c2.2,0.8,4.1,2,5.9,3.5c1.5,1.2,2.3,3,3.5,4.4c2,2.4,4,4.8,6,7.2c1.1,1.4,2.4,2.6,3.3,4.1
		c-0.5-0.2-0.8-0.6-1.1-1c-3.8-4.2-8.4-7.4-13.4-10c-2.8-1.4-5.5-3-8.6-3.6c-1.5-0.3-3-0.3-4.6,0c-3.8,0.8-6.8,2.9-9.1,6
		c-0.1,0.2-0.2,0.6-0.5,0.3c0.9-3.2,2.7-5.8,5.1-8C439.3,363.8,444,363.3,449,364.6z"/>
	<path fill="#C76C54" d="M443.5,409.2c-0.9-1.1-2.2-0.6-3.3-0.9c-0.4-0.1-0.8,0-1.2-0.2c0.8,0.1,1-0.4,1-1.1c0-2.9,0-5.8,0.4-8.7
		c0.4-2.3,1.3-4,3.4-5.2c1.4-0.8,2.8-1.2,4.3-1.1c1.4,0.1,2.9,0,4.3-0.2c1.8-0.2,3.5,0.5,5.3,0.5c-1.1,0.9-2.3,1.7-3.3,2.7
		c-2,2.1-2.8,4.7-3.7,7.3c-0.3,0.9-0.6,1.1-1.4,0.6c-0.9-0.6-1.8-1.2-2.3-2.2c-0.6-1.2-1.7-2-2.3-3.3c-1.1,1.9-1,7.7,0.2,11.5
		C444.6,409.3,444,409.1,443.5,409.2z"/>
	<path fill="#81B29A" d="M350,238.1c0.5-1.1,0.2-2.3,0.4-3.4c0.4-1.6,0.8-3.2,1.5-4.8c0.7-1.6,1-3.1-0.5-4.5c0.2,0,0.5,0,0.7,0
		c0.8,0.2,1.6,0.3,2.3,0.5c5.3,1.4,9.1,4.5,10.8,9.9c0.2,0.7,0.3,1.3-0.1,1.9c-0.6,0.2-1.1,0.2-1.7,0.2c-4,0-8,0-12,0.3
		C350.9,238.1,350.4,238.1,350,238.1z"/>
	<path fill="#5B7D6C" d="M448.3,345.9c-0.8-0.5-1.2-1.3-1.4-2.1c-0.5-0.6,0-0.9,0.4-1.2c0.6-0.5,1.6-0.5,1.9-1.2
		c0.3-0.7-0.6-1.3-0.9-2c-0.1-0.3-0.1-0.5,0.1-0.7c1-0.6,3-0.5,3.9,0.3c1.8,1.7,3.8,3.2,5.2,5.2c0.6,0.9,1.2,0.8,1.8,0.1
		c1.6-1.5,2.9-3.3,4.1-5.1c1.7-2.5,3.5-4.8,6-6.6c1.6-1.2,3.4-2.1,5.3-2.7c0.2,0.3-0.1,0.4-0.2,0.5c-3.1,2.6-5.2,5.9-7.2,9.3
		c-1.8,3-3.4,6.2-4.2,9.6c-0.2,0.8-0.5,0.9-1.2,0.6c-0.6-0.3-1.1-0.5-1.7-0.7c-2.3-1.6-4.7-3.2-6.9-5.1c-0.8-0.7-2.6-0.6-3.4,0.1
		C449.2,344.8,448.6,345.3,448.3,345.9z"/>
	<path fill="#E6D6C3" d="M423.2,331.3c2.1,4.2,5.1,7.7,9.1,10.2c2.9,1.8,5.6,4,8.9,5.1c1.5,0.5,2.7,1.6,3.9,2.6c-1.2,1-2.3,2-3.5,3
		c-0.1,0.1-0.2,0.1-0.3,0c-0.4-1.1-1.5-1.6-2-2.6c-0.9-1.2-2.3-1.5-3.6-1.6c-3.9-0.2-7-1.8-9.5-4.6c-1.9-2.2-3.8-4.4-4.5-7.4
		c-0.3-1.4,0.2-2.7,0.4-4C422.2,331.8,422.6,331.4,423.2,331.3z"/>
	<path fill="#28293B" d="M424.1,397.9c-0.6-0.1-0.8-0.5-1.2-0.9c-1.2-1.2-2.5-2.4-4-3.2c-4.3-2.3-8.1-0.6-9.8,3.7
		c-0.3,0.8-0.3,1.9-1.2,2.5c-1.9-4-0.4-10,3-12.7c1.6-1.2,3.4-1.4,5.2-1c1.6,0.4,3.2,1,4.6,2c1,0.7,2.1,1.2,3.4,1.4
		c0.7,0.2,0.9,0.4,0.7,1.2c-0.7,1.9-0.4,3.9-0.6,5.9C424.1,397.1,424.1,397.5,424.1,397.9z"/>
	<path fill="#BBBBBB" d="M354.4,225.9c-0.8-0.2-1.7,0.6-2.3-0.5c0-1.5,0.7-2.8,1.2-4.2c5.3-14.5,10.7-29,16.2-43.4
		c0-0.1,0.1-0.2,0.2-0.3c0.8,0,1.4,0.4,1.8,0.9c-2.6,7-5.1,14-7.7,20.9c-3.1,8.3-6.2,16.5-9.4,24.7c-0.1,0.3-0.2,0.6-0.4,0.8
		C353.6,225.5,354,225.7,354.4,225.9z"/>
	<path fill="#C76C54" d="M480.9,250.4c0.1,4.5,0.2,9,0.3,13.5c0.1,4,0.3,7.9,0.4,11.9c-0.4,0.5-0.9,0.9-1.6,0.7
		c-1.5-5.3-2.6-10.7-3.4-16.2c-0.4-3.1-0.7-6.2-0.7-9.3c1.2-0.6,2.6-0.4,3.9-0.5C480.1,250.4,480.5,250.4,480.9,250.4z"/>
	<path fill="#CD7057" d="M465.8,319.3c0.3-0.1,0.6-0.2,0.9-0.1c3.3,1.5,6.7,1.6,10.2,1.1c0.5-0.1,1-0.2,1.5-0.1
		c0.6,0.5,0.4,1.2,0.4,1.8c-0.2,1.9-1,3.7-2,5.3c-0.2,0.3-0.5,0.6-0.9,0.6c-3.6,2-6.7,0.3-9.7-1.6c-0.5-0.3-0.4-0.6,0.1-0.8
		c0.9-0.6,1.8-1.2,2.7-2.1c-2.5,0.2-4.5-0.9-6.6-2.2C463.8,320.9,464.8,320.2,465.8,319.3z"/>
	<path fill="#E5D5C2" d="M475.9,328.1c1.7-2.3,2.8-4.8,2.5-7.8c2.9-0.6,5.5-1.7,8.2-2.8c0.9-0.3,1.5-1,1.9-1.9
		c0.5,0.6,0.2,1.2,0.1,1.9c-0.2,1.9-0.2,3.7,0,5.6c0.1,0.8,0.3,1.5,0.9,2c-0.6,1,0.2,2,0,3c-0.1-0.1-0.3-0.2-0.4-0.2
		c-0.5-0.5-1.2-0.7-1.9-0.7c-4.1-0.2-8.1-0.1-11.7,2.3C475.6,329,475.7,328.6,475.9,328.1z"/>
	<path fill="#E5D5C2" d="M448.3,338.7c0.3,1.1,1.1,1.9,1.6,2.9c-0.7,0.5-1.5,0.8-2.2,1.1c-0.5,0.2-1,0.4-0.8,1.1
		c-1.2-0.4-1.5-1.5-1.9-2.4c-0.6-1.4-1-2.9-1.4-4.4c-0.8-3.8-2.8-7.1-5.3-10c-0.5-0.5-0.8-1.2-1.5-1.4c0-1.1-0.5-2-0.5-3.1
		c0-0.1,0-0.2,0-0.3c0.1-0.5,0.1-1,0.3-1.4c1.6-0.4,2.5,0.8,3.3,1.8c0.5,0.6,1,1.2,1.7,1.5c1.2,0.6,1.7,1.5,2,2.7
		c0.9,4,2.6,7.7,4.4,11.4C448,338.4,448.1,338.5,448.3,338.7z"/>
	<path fill="#CD7057" d="M489.5,325.1c-0.9,0.1-1.1-0.4-1.2-1.2c-0.4-2.8-0.3-5.6,0.2-8.3c0.3-1.2,0.5-2.3,1-3.4
		c0.2-0.3-0.1-0.8,0.4-1c1.6,2.6,3.5,4.9,5.3,7.4c0.3,1.5,0.6,3,1.4,4.4c0.7,1.3,1.5,2.3,2.7,3.3C496,326.1,492.8,324.8,489.5,325.1
		z"/>
	<path fill="#BBBBBB" d="M349.3,225c-0.6-0.1-1.1,0-1.6,0.4c0-0.5-0.2-1-0.4-1.4c-5.2-14.5-10.3-28.9-15.5-43.4
		c-0.1-0.4-0.2-0.8-0.3-1.2c0.3-0.7,0.9-0.8,1.6-0.7c4.5,12.8,8.9,25.5,13.4,38.3C347.4,219.6,348.5,222.2,349.3,225z"/>
	<path fill="#BBBABA" d="M436.5,322.3c0.3,0.9,0.2,1.8,0.6,2.6c0.2,0.3,0.1,0.6-0.4,0.6c-0.2-0.6-0.8-0.8-1.2-1.3
		c-0.4-0.5-0.9-0.1-1.2,0.4c-0.5,0.7-0.4,1.5-0.2,2.3c0.4,1.3,1.1,2.5,1.2,3.9c0.1,0.6-0.4,0.8-0.7,1c-0.7,0.4-1.4,0.8-2.2,0.8
		c-1.5-0.2-2.7-1.1-3.9-1.8c-1.3-0.7-2.4-1.8-3.6-2.6c-0.3-0.2-0.6-0.5-0.6-0.9c0.3-0.3,0.6-0.6,1-0.9c0.2-0.1,0.3-0.2,0.5-0.2
		c0.7-1,1.9-1.3,2.7-2c0.5,0.2,1.2,0.5,1.2-0.5c0.7-0.7,1.5-1.4,2.5-1.6c0.6-0.4,1.1-0.7,1.7-1.1c0.8-0.6,1.7-0.8,2.7-0.3
		c0.4,0.5,0,0.9,0,1.4c-0.4,0.1-0.9-0.6-1.3,0c-0.3,0.5,0.2,0.8,0.7,0.4C436.1,322.5,436.2,322.3,436.5,322.3z"/>
	<path fill="#CD7057" d="M460,292c-0.1,0.5-0.1,1-0.2,1.5c-0.6-0.4-0.8-0.9-1-1.5c-0.6-1.4-1.2-2.8-2-4.1c-1.9-3.6-2.6-7.3-2.2-11.3
		c0.4-0.5,0.1-1,0.3-1.6c0.4,0.4,0.6,0.9,0.8,1.4c1.2,2.9,2.8,5.7,4.6,8.2c0.2,0.2,0.5,0.5,0.2,0.8c0.3,1.6-0.2,3.2-0.3,4.8
		C460.4,290.7,460.5,291.4,460,292z"/>
	<path fill="#C56B53" d="M356.2,421.8c0.1-1.9,0.1-1.9,1.9-1.9c5,0,10.1-0.4,15.1-0.2c0,0.2,0,0.4,0,0.6c-0.1,1.9-0.1,1.9-2,2
		c-4.1,0.2-8.2,0.5-12.4,0.4c-0.6,0-1.3-0.1-1.9-0.2C356.5,422.5,356.2,422.3,356.2,421.8z"/>
	<path fill="#81B29A" d="M333.1,178.7c-0.5,0.2-1.1,0.5-1.6,0.7c-1.9,0.1-3.3-0.6-4-2.4c-0.6-1.6,0-3.5,1.4-4.3
		c1.5-0.9,3.7-0.6,4.7,0.7c1.2,1.5,1.2,3.4,0,4.7C333.5,178.3,333.3,178.5,333.1,178.7z"/>
	<path fill="#3E415B" d="M458.9,292c0.5,0.4,0.8,0.9,1,1.5c-0.2,1-0.9,1.7-1.2,2.6c-1.7,3.2-3.7,6.3-4.2,9.9c-0.2,1.1,0.1,2,0.4,3
		c0.1,0.3,0.2,0.5,0.6,0.4c-0.3,0.7-0.9,1.2-1.5,1.6c-0.1-0.6-0.6-0.7-0.9-1.1c-0.9-1.4-1-2.8-0.6-4.3c1.4-4.7,3.7-9.1,6.1-13.3
		C458.6,292.2,458.7,292.1,458.9,292z"/>
	<path fill="#28293B" d="M453.8,311.1c0.2-0.8,0.8-1.3,1.5-1.6c1.5-0.8,3.2-0.5,4.2,0.8c1,1.3,1,3.2-0.1,4.4c-1.1,1.3-3,1.5-4.4,0.7
		C453.7,314.5,453.2,312.8,453.8,311.1z"/>
	<path fill="#81B29A" d="M371.4,178.5c-0.7-0.2-1.3-0.5-1.8-0.9c-1.4-2-1.2-4,0.4-5.2c1.2-0.9,2.8-0.9,4-0.1
		c1.2,0.8,1.7,2.4,1.3,3.8c-0.4,1.4-1.6,2.4-3.1,2.4C371.9,178.5,371.6,178.5,371.4,178.5z"/>
	<path fill="#5D7F6E" d="M439.3,349.8c1,0.6,2,1.2,2.1,2.5c-0.6,0.6-1.3,1.1-2.1,1.4C438.3,351.9,438.3,350.8,439.3,349.8z"/>
	<path fill="#E6D5C3" d="M432.2,322.2c-0.8,0.6-1.6,1.2-2.5,1.6c-0.2-0.3-0.3-0.6-0.5-0.9c0.3-0.3,0.2-0.6,0.2-1
		c0-0.4,0-0.9,0.5-1.1c0.5-0.2,1,0,1.4,0.4C431.6,321.5,431.7,321.9,432.2,322.2z"/>
	<path fill="#FCEBD7" d="M428.5,324.2c-0.5,1.2-1.8,1.4-2.7,2c-0.2-0.8,0.3-1.7-0.2-2.6C426.6,323.2,427.5,323.7,428.5,324.2z"/>
	<path fill="#80B19A" d="M439.3,353.6c0.4-0.9,1.4-1,2.1-1.4c0.1,0,0.1,0,0.2,0c-1,0.8-0.6,2-0.7,3
		C440.2,354.9,439.8,354.3,439.3,353.6z"/>
	<path fill="#F0CA90" d="M493.6,246.8c0,0.1,0,0.1-0.1,0.2c-0.2,0.4,0.1,1.1-0.5,1.1c-0.5,0-0.4-0.6-0.4-1c0-0.5-0.4-0.5-0.6-0.7
		c0.1,0,0.3,0,0.3-0.1C493.3,244.9,493.4,246.2,493.6,246.8z"/>
	<path fill="#E5C18C" d="M485.2,246.6c-0.1,0.4,0.3,1.2-0.3,1.2c-0.7,0-0.4-0.8-0.6-1.3C484.5,246.1,484.8,245.8,485.2,246.6z"/>
	<path fill="#6F9985" d="M472.5,390.7c-0.1-0.2-0.2-0.5-0.2-0.7c2.5-3.2,5.9-5.2,9.4-7.2c1.6-0.9,3.3-1.2,5.1-1.3c0.8,0,1.5-0.3,2-1
		c2.8-3.9,5.5-7.9,7.5-12.3c0.6-1.4,1.7-2.6,2.9-3.6c1.3-1,2.4-2.2,3.6-3.4c0.2,2.5-0.5,4.4-2.5,6.1c-3.7,3-5,7.3-5.9,11.8
		c-0.4,2.1-1.3,4-3.3,5.2c-0.7,0.4-1.4,0.7-2.2,0.6c-2.9-0.3-5.1,0.9-7.1,2.8c-1,1-2.2,1.6-3.5,1.8
		C476.3,390,474.5,390.7,472.5,390.7z"/>
	<path fill="#3D405B" d="M352,367.5c2.9,0,5.8,0,8.8,0c0.2,4.4,0.2,8.9,0.2,13.3c0,0.9-0.5,0.8-1.1,0.8c-2.9,0.1-5.9-0.1-8.8,0.2
		c-3.5,0-7.1,0-10.6,0.1c-1,0-1.2-0.3-1.2-1.2c0.1-3.9,0.1-7.7,0-11.6c0-1.1,0.3-1.3,1.3-1.3c3.4,0,6.8,0,10.2,0
		C351.3,367.7,351.7,367.8,352,367.5z"/>
	<path fill="#28293B" d="M480,276.5c0.5-0.2,1-0.4,1.6-0.7c1.4-0.1,2.6-0.7,4-0.7c3.3,0,6.3,0.9,8.9,3c3.8,3.4,5.4,7.7,4.3,12.7
		c-1.1,5-4.2,8.3-9.1,9.9c-0.1,0-0.2,0.1-0.3,0.2c-1.4,0.2-2.7,0.3-4.1,0.5c-1.9,0.3-3.6-0.2-5.1-1.4c-4.6-2.5-7.2-6.3-7.3-11.5
		c-0.1-4.8,2-8.6,6-11.3C479.3,277,479.7,276.7,480,276.5z"/>
	<path fill="#E6D6C3" d="M460,292c0-2.2,0.1-4.5,0.7-6.6c1.8,2.5,3.7,4.8,6.4,6.4c0.5,0.3,0.7,0.8,0.9,1.3c2.3,4.5,5.4,8.3,9.9,10.7
		c0.9,0.5,1.8,0.9,2.7,1.3c-2.5-0.3-4.8-1.2-7-2.4c-1.9-1-3.4-2.7-5.2-3.7C465.2,297,462.7,294.4,460,292z"/>
	<path fill="#E6D6C3" d="M480.2,300c1.6,0.7,3.4,1,5.1,1.4c1.5,3.3,3.1,6.6,4.6,9.9c-0.1,0.3-0.3,0.7-0.4,1c0-0.4-0.3-0.6-0.5-0.9
		c-2.1-2.1-4.2-4.2-6.4-6.4c-0.1-0.1-0.3-0.4-0.5-0.2C481.3,303.3,480.8,301.7,480.2,300z"/>
	<path fill="#F2CC8F" d="M432.6,414.6c0.2-2.7,1.9-3.9,4.6-4c1.8-0.1,3.4,2,3.4,4.1c0,2.2-1.8,4-4,4
		C434.4,418.7,432.6,416.9,432.6,414.6z"/>
	<path fill="#E7C48C" d="M492.9,266.7c0-0.3,0-0.5,0-0.8c0.1-0.4-0.1-1,0.5-1c0.4,0,0.4,0.6,0.4,0.9c0,0.7,0.1,1.4-0.1,2
		c-0.1,0.2-0.1,0.5-0.4,0.5c-0.4,0-0.4-0.3-0.4-0.6C492.9,267.5,492.9,267.1,492.9,266.7C492.9,266.7,492.9,266.7,492.9,266.7z"/>
	<path fill="#EAC68D" d="M484.6,254.8c0.6,1.1,0.6,2.1,0.5,3.1c0,0.3-0.1,0.6-0.4,0.6c-0.3,0-0.4-0.3-0.5-0.6
		C484.1,256.9,484,255.9,484.6,254.8z"/>
	<path fill="#E9C58C" d="M493.1,254.8c0.7,1,0.6,2,0.5,3c0,0.2-0.1,0.4-0.4,0.4c-0.3,0-0.4-0.2-0.4-0.4
		C492.6,256.8,492.5,255.8,493.1,254.8z"/>
	<path fill="#E3C08B" d="M493.4,259.9c0.6,1,0.6,1.9,0.4,2.7c-0.1,0.2-0.1,0.5-0.4,0.5c-0.3,0-0.4-0.3-0.4-0.5
		C492.8,261.7,492.8,260.9,493.4,259.9z"/>
	<path fill="#DEBC89" d="M492.7,251.7c0.1-0.5-0.2-1.3,0.4-1.3c0.8,0,0.5,0.9,0.5,1.4c0,0.5,0.1,1.4-0.5,1.4
		C492.5,253.1,492.8,252.2,492.7,251.7z"/>
	<path fill="#E4C18B" d="M484.5,271.5c0.5,0.8,0.5,1.5,0.3,2.3c-0.1,0.2-0.2,0.5-0.4,0.4c-0.3,0-0.4-0.2-0.4-0.5
		C483.8,273,483.8,272.2,484.5,271.5z"/>
	<path fill="#DDBC89" d="M485.2,250.9c-0.1,0.5,0.1,1.2-0.5,1.2c-0.5,0-0.5-0.8-0.5-1.2c0-0.5,0-1.4,0.4-1.4
		C485.4,249.6,485,250.4,485.2,250.9z"/>
	<path fill="#D4B687" d="M484.6,260.7c0.4,1,0.5,1.7,0.4,2.5c0,0.2-0.1,0.6-0.4,0.6c-0.3,0-0.4-0.3-0.4-0.6
		C484.1,262.5,484.3,261.7,484.6,260.7z"/>
	<path fill="#E7C48C" d="M484.5,266.4c0.6,1,0.4,1.8,0.3,2.7c0,0.2-0.1,0.5-0.4,0.5c-0.2,0-0.3-0.2-0.3-0.4
		C484.1,268.2,484,267.4,484.5,266.4z"/>
	<path fill="#DDBB89" d="M493.2,270.6c0.5,0.6,0.4,1.1,0.4,1.7c0,0.3-0.1,0.6-0.4,0.6c-0.4,0-0.5-0.3-0.5-0.6
		C492.7,271.7,492.8,271.2,493.2,270.6z"/>
	<path fill="#FFFFFF" d="M374.4,305.1c-0.8-1.5-0.5-2.9-0.6-4.3c-0.3-3.3-0.4-6.6-0.5-10c-0.2-5.9-0.3-11.9-0.3-17.8
		c0-1.1-0.3-2.1-0.2-3.2c0-0.3,0.1-0.7,0.1-1c0.1-0.6,0.4-1.3,1.1-1.3c0.7,0,1.1,0.5,1.3,1.2c0.6,1.6,0.6,3.3,0.8,5
		c0.2,2.5,0.3,5,0.3,7.5c0,1.2,0.2,2.4,0.2,3.7c-0.2,6.3-0.7,12.6-1.9,18.9C374.7,304.2,374.6,304.5,374.4,305.1z"/>
	<path fill="#9F9E9E" d="M424.3,327.4c2.3,1.6,4.4,3.3,6.8,4.6c0.4,0.2,0.8,0.3,1.2,0.5c0.6,1.1,0,1.8-0.7,2.5
		c-1.9,0.2-3.1-1.1-4.5-1.9c-0.8-0.5-1.6-1.2-2.4-1.8c-0.9-0.8-1.3-2.5-0.9-3.6C424,327.5,424.2,327.5,424.3,327.4z"/>
	<path fill="#8C8C8B" d="M431.7,335c0.2-0.8,0.9-1.5,0.7-2.5c1-0.5,2.2-0.7,3-1.6c0.6,0.4,0.7,1,0.9,1.5c0.1,0.2,0.2,0.5-0.2,0.7
		C434.7,333.7,433.4,334.8,431.7,335z"/>
	<path fill="#4E4C4C" d="M436.5,322.3c-0.2,0.3-0.2,0.9-0.7,0.9c-0.4,0.1-0.8-0.1-1-0.4c-0.3-0.4-0.1-0.8,0.2-1.1
		c0.3-0.3,0.7-0.4,1-0.2c0.2,0.1,0.3,0.4,0.5,0.6C436.5,322.2,436.5,322.3,436.5,322.3z"/>
	<path fill="#4C4B4B" d="M432.9,327.4c0,0.1,0,0.2,0,0.2c-1.3,0.8-0.4,1.4,0.1,2c0.2,0.2,0.5,0.6,0,0.8c-0.4,0.2-0.8,0.9-1.4,0.4
		c-0.3-0.2-0.5-0.5-0.8-0.8c-0.2-0.2-0.5-0.4-0.8-0.1c-0.8,0.8-1.2,0.2-1.6-0.3c-0.3-0.3-0.5-0.6,0-0.9c0.6-0.3,0.5-0.6,0-1
		c-0.3-0.3-0.9-0.7-0.2-1.2c0.5-0.4,1.1-0.9,1.7-0.1c0.4,0.6,0.8,0.8,1.5,0.2C432,326.1,432.9,326.7,432.9,327.4z"/>
	<path fill="#555353" d="M431.3,324.8c-0.2,0-0.4-0.1-0.4-0.3c-0.1-0.3,1.1-1.4,1.6-1.4c0.2,0,0.4,0.1,0.4,0.3
		C433,323.6,431.7,324.8,431.3,324.8z"/>
	<path fill="#F2CC8F" d="M495.1,288.3c0,5.2-3.8,9.2-8.7,9.2c-5,0-9.3-4.3-9.3-9.5c0-5.1,3.9-9.1,8.8-9.1
		C491,278.9,495.1,283.1,495.1,288.3z"/>
	<path fill="#43435C" d="M486.4,293.4c0.5,0,1.1,0,1.6,0c0.4,0,0.7,0.3,0.7,0.7c0,0.5-0.3,0.8-0.8,0.8c-1.1,0.1-2.3,0.1-3.4,0
		c-0.4-0.1-0.7-0.3-0.7-0.8c0-0.4,0.3-0.6,0.7-0.7C485.1,293.4,485.8,293.4,486.4,293.4C486.4,293.4,486.4,293.4,486.4,293.4z"/>
</g>
</svg>
